<?xml version="1.0" encoding="utf-8"?>
<!-- Generator: Adobe Illustrator 16.0.3, SVG Export Plug-In . SVG Version: 6.00 Build 0)  -->
<!DOCTYPE svg PUBLIC "-//W3C//DTD SVG 1.1//EN" "http://www.w3.org/Graphics/SVG/1.1/DTD/svg11.dtd">
<svg version="1.1" xmlns="http://www.w3.org/2000/svg" xmlns:xlink="http://www.w3.org/1999/xlink" x="0px" y="0px" width="792px"
	 height="612px" viewBox="0 0 792 612" enable-background="new 0 0 792 612" xml:space="preserve">
<g id="Layer_2_copy_2">
	<g>
		<rect x="394.961" y="299.125" width="32" height="32"/>
		<g>
			<path fill="#8E8E8E" d="M425.965,314.13c-2.233,0-2.126-2.288-2.126-2.288s0-2.745,0-6.109c0-3.364-3.229-3.391-3.229-3.391
				h-2.153v2.019h1.776c0,0,1.131-0.027,1.131,1.83c0,1.856,0,5.517,0,5.517s0.026,3.041,2.637,3.418
				c-2.61,0.377-2.637,3.418-2.637,3.418s0,3.66,0,5.518c0,1.856-1.131,1.83-1.131,1.83h-1.776v2.018h2.153
				c0,0,3.229-0.026,3.229-3.391s0-6.109,0-6.109s-0.107-2.287,2.126-2.287V314.13z"/>
			<path fill="#8E8E8E" d="M395.958,316.121c2.234,0,2.126,2.287,2.126,2.287s0,2.745,0,6.109s3.229,3.391,3.229,3.391h2.152v-2.018
				h-1.776c0,0-1.13,0.026-1.13-1.83c0-1.857,0-5.518,0-5.518s-0.027-3.041-2.638-3.418c2.61-0.377,2.638-3.418,2.638-3.418
				s0-3.66,0-5.517c0-1.857,1.13-1.83,1.13-1.83h1.776v-2.019h-2.152c0,0-3.229,0.027-3.229,3.391c0,3.364,0,6.109,0,6.109
				s0.107,2.288-2.126,2.288V316.121z"/>
			<rect x="405.619" y="307.024" fill="#484849" width="10.729" height="1.22"/>
			<rect x="405.619" y="309.868" fill="#484849" width="10.729" height="1.22"/>
			<rect x="405.619" y="312.694" fill="#676868" width="10.729" height="1.22"/>
			<rect x="405.619" y="315.87" fill="#8E8D8D" width="10.729" height="1.22"/>
			<rect x="405.619" y="319.024" fill="#B0AEAF" width="10.729" height="1.22"/>
			<rect x="405.619" y="322.024" fill="#A64599" width="10.729" height="1.22"/>
			<rect x="403.896" y="325.899" fill="#FFFFFF" width="14.174" height="1.974"/>
		</g>
	</g>
</g>
<g id="Layer_2_copy" display="none">
	<rect x="261.533" y="66.078" display="inline" width="298.856" height="498.095"/>
	<g display="inline">
		<path fill="#8E8E8E" d="M550.336,360.708c-20.75,0-19.75-21.25-19.75-21.25s0-25.5,0-56.75s-30-31.5-30-31.5h-20v18.75h16.5
			c0,0,10.5-0.25,10.5,17s0,51.25,0,51.25s0.25,28.25,24.5,31.75c-24.25,3.5-24.5,31.75-24.5,31.75s0,34,0,51.25s-10.5,17-10.5,17
			h-16.5v18.75h20c0,0,30-0.25,30-31.5s0-56.75,0-56.75s-1-21.25,19.75-21.25V360.708z"/>
		<path fill="#8E8E8E" d="M271.586,379.208c20.75,0,19.75,21.25,19.75,21.25s0,25.5,0,56.75s30,31.5,30,31.5h20v-18.75h-16.5
			c0,0-10.5,0.25-10.5-17s0-51.25,0-51.25s-0.25-28.25-24.5-31.75c24.25-3.5,24.5-31.75,24.5-31.75s0-34,0-51.25s10.5-17,10.5-17
			h16.5v-18.75h-20c0,0-30,0.25-30,31.5s0,56.75,0,56.75s1,21.25-19.75,21.25V379.208z"/>
		<rect x="361.336" y="294.708" fill="#484849" width="99.667" height="11.333"/>
		<rect x="361.336" y="321.125" fill="#484849" width="99.667" height="11.333"/>
		<rect x="361.336" y="347.376" fill="#676868" width="99.667" height="11.332"/>
		<rect x="361.336" y="376.876" fill="#8E8D8D" width="99.667" height="11.332"/>
		<rect x="361.336" y="406.176" fill="#B0AEAF" width="99.667" height="11.332"/>
		<rect x="361.336" y="434.043" fill="#A64599" width="99.667" height="11.332"/>
		<rect x="345.336" y="470.042" fill="#FFFFFF" width="131.667" height="18.333"/>
	</g>
</g>
<g id="Layer_2" display="none">
	<rect x="262.332" y="166.496" display="inline" width="297.259" height="297.259"/>
	<g display="inline">
		<path fill="#8E8E8E" d="M550.336,305.875c-20.75,0-19.75-21.25-19.75-21.25s0-25.5,0-56.75s-30-31.5-30-31.5h-20v18.75h16.5
			c0,0,10.5-0.25,10.5,17s0,51.25,0,51.25s0.25,28.25,24.5,31.75c-24.25,3.5-24.5,31.75-24.5,31.75s0,34,0,51.25s-10.5,17-10.5,17
			h-16.5v18.75h20c0,0,30-0.25,30-31.5s0-56.75,0-56.75s-1-21.25,19.75-21.25V305.875z"/>
		<path fill="#8E8E8E" d="M271.586,324.375c20.75,0,19.75,21.25,19.75,21.25s0,25.5,0,56.75s30,31.5,30,31.5h20v-18.75h-16.5
			c0,0-10.5,0.25-10.5-17s0-51.25,0-51.25s-0.25-28.25-24.5-31.75c24.25-3.5,24.5-31.75,24.5-31.75s0-34,0-51.25s10.5-17,10.5-17
			h16.5v-18.75h-20c0,0-30,0.25-30,31.5s0,56.75,0,56.75s1,21.25-19.75,21.25V324.375z"/>
		<rect x="361.336" y="239.875" fill="#484849" width="99.667" height="11.333"/>
		<rect x="361.336" y="266.292" fill="#484849" width="99.667" height="11.333"/>
		<rect x="361.336" y="292.543" fill="#676868" width="99.667" height="11.332"/>
		<rect x="361.336" y="322.043" fill="#8E8D8D" width="99.667" height="11.332"/>
		<rect x="361.336" y="351.343" fill="#B0AEAF" width="99.667" height="11.332"/>
		<rect x="361.336" y="379.21" fill="#A64599" width="99.667" height="11.332"/>
		<rect x="345.336" y="415.209" fill="#FFFFFF" width="131.667" height="18.333"/>
	</g>
</g>
</svg>
