<?xml version="1.0" encoding="utf-8"?>
<!-- Generator: Adobe Illustrator 16.0.3, SVG Export Plug-In . SVG Version: 6.00 Build 0)  -->
<!DOCTYPE svg PUBLIC "-//W3C//DTD SVG 1.1//EN" "http://www.w3.org/Graphics/SVG/1.1/DTD/svg11.dtd">
<svg version="1.1" xmlns="http://www.w3.org/2000/svg" xmlns:xlink="http://www.w3.org/1999/xlink" x="0px" y="0px" width="792px"
	 height="612px" viewBox="0 0 792 612" enable-background="new 0 0 792 612" xml:space="preserve">
<g id="Layer_2_copy_2">
	<rect x="310.961" y="215.125" width="200" height="200"/>
	<g>
		<path fill="#8E8E8E" d="M504.734,308.901c-13.961,0-13.288-14.297-13.288-14.297s0-17.157,0-38.183
			c0-21.025-20.185-21.193-20.185-21.193h-13.456v12.615h11.102c0,0,7.064-0.168,7.064,11.438s0,34.481,0,34.481
			s0.168,19.007,16.484,21.362c-16.316,2.354-16.484,21.362-16.484,21.362s0,22.875,0,34.481c0,11.605-7.064,11.438-7.064,11.438
			h-11.102v12.615h13.456c0,0,20.185-0.168,20.185-21.193s0-38.183,0-38.183s-0.673-14.297,13.288-14.297V308.901z"/>
		<path fill="#8E8E8E" d="M317.188,321.349c13.961,0,13.288,14.297,13.288,14.297s0,17.157,0,38.183s20.185,21.193,20.185,21.193
			h13.456v-12.615h-11.102c0,0-7.064,0.168-7.064-11.438c0-11.606,0-34.481,0-34.481s-0.168-19.008-16.484-21.362
			c16.316-2.354,16.484-21.362,16.484-21.362s0-22.875,0-34.481s7.064-11.438,7.064-11.438h11.102v-12.615h-13.456
			c0,0-20.185,0.168-20.185,21.193c0,21.026,0,38.183,0,38.183s0.673,14.297-13.288,14.297V321.349z"/>
		<rect x="377.573" y="264.496" fill="#484849" width="67.058" height="7.625"/>
		<rect x="377.573" y="282.27" fill="#484849" width="67.058" height="7.625"/>
		<rect x="377.573" y="299.932" fill="#676868" width="67.058" height="7.624"/>
		<rect x="377.573" y="319.779" fill="#8E8D8D" width="67.058" height="7.625"/>
		<rect x="377.573" y="339.493" fill="#B0AEAF" width="67.058" height="7.624"/>
		<rect x="377.573" y="358.242" fill="#A64599" width="67.058" height="7.624"/>
		<rect x="366.808" y="382.463" fill="#FFFFFF" width="88.587" height="12.335"/>
	</g>
</g>
<g id="Layer_2_copy" display="none">
	<rect x="261.533" y="66.078" display="inline" width="298.856" height="498.095"/>
	<g display="inline">
		<path fill="#8E8E8E" d="M550.336,360.708c-20.75,0-19.75-21.25-19.75-21.25s0-25.5,0-56.75s-30-31.5-30-31.5h-20v18.75h16.5
			c0,0,10.5-0.25,10.5,17s0,51.25,0,51.25s0.25,28.25,24.5,31.75c-24.25,3.5-24.5,31.75-24.5,31.75s0,34,0,51.25s-10.5,17-10.5,17
			h-16.5v18.75h20c0,0,30-0.25,30-31.5s0-56.75,0-56.75s-1-21.25,19.75-21.25V360.708z"/>
		<path fill="#8E8E8E" d="M271.586,379.208c20.75,0,19.75,21.25,19.75,21.25s0,25.5,0,56.75s30,31.5,30,31.5h20v-18.75h-16.5
			c0,0-10.5,0.25-10.5-17s0-51.25,0-51.25s-0.25-28.25-24.5-31.75c24.25-3.5,24.5-31.75,24.5-31.75s0-34,0-51.25s10.5-17,10.5-17
			h16.5v-18.75h-20c0,0-30,0.25-30,31.5s0,56.75,0,56.75s1,21.25-19.75,21.25V379.208z"/>
		<rect x="361.336" y="294.708" fill="#484849" width="99.667" height="11.333"/>
		<rect x="361.336" y="321.125" fill="#484849" width="99.667" height="11.333"/>
		<rect x="361.336" y="347.376" fill="#676868" width="99.667" height="11.332"/>
		<rect x="361.336" y="376.876" fill="#8E8D8D" width="99.667" height="11.332"/>
		<rect x="361.336" y="406.176" fill="#B0AEAF" width="99.667" height="11.332"/>
		<rect x="361.336" y="434.043" fill="#A64599" width="99.667" height="11.332"/>
		<rect x="345.336" y="470.042" fill="#FFFFFF" width="131.667" height="18.333"/>
	</g>
</g>
<g id="Layer_2" display="none">
	<rect x="262.332" y="166.496" display="inline" width="297.259" height="297.259"/>
	<g display="inline">
		<path fill="#8E8E8E" d="M550.336,305.875c-20.75,0-19.75-21.25-19.75-21.25s0-25.5,0-56.75s-30-31.5-30-31.5h-20v18.75h16.5
			c0,0,10.5-0.25,10.5,17s0,51.25,0,51.25s0.25,28.25,24.5,31.75c-24.25,3.5-24.5,31.75-24.5,31.75s0,34,0,51.25s-10.5,17-10.5,17
			h-16.5v18.75h20c0,0,30-0.25,30-31.5s0-56.75,0-56.75s-1-21.25,19.75-21.25V305.875z"/>
		<path fill="#8E8E8E" d="M271.586,324.375c20.75,0,19.75,21.25,19.75,21.25s0,25.5,0,56.75s30,31.5,30,31.5h20v-18.75h-16.5
			c0,0-10.5,0.25-10.5-17s0-51.25,0-51.25s-0.25-28.25-24.5-31.75c24.25-3.5,24.5-31.75,24.5-31.75s0-34,0-51.25s10.5-17,10.5-17
			h16.5v-18.75h-20c0,0-30,0.25-30,31.5s0,56.75,0,56.75s1,21.25-19.75,21.25V324.375z"/>
		<rect x="361.336" y="239.875" fill="#484849" width="99.667" height="11.333"/>
		<rect x="361.336" y="266.292" fill="#484849" width="99.667" height="11.333"/>
		<rect x="361.336" y="292.543" fill="#676868" width="99.667" height="11.332"/>
		<rect x="361.336" y="322.043" fill="#8E8D8D" width="99.667" height="11.332"/>
		<rect x="361.336" y="351.343" fill="#B0AEAF" width="99.667" height="11.332"/>
		<rect x="361.336" y="379.21" fill="#A64599" width="99.667" height="11.332"/>
		<rect x="345.336" y="415.209" fill="#FFFFFF" width="131.667" height="18.333"/>
	</g>
</g>
</svg>
