<?xml version="1.0" encoding="utf-8"?>
<!-- Generator: Adobe Illustrator 19.2.1, SVG Export Plug-In . SVG Version: 6.00 Build 0)  -->
<svg version="1.1" id="Layer_1" xmlns="http://www.w3.org/2000/svg" xmlns:xlink="http://www.w3.org/1999/xlink" x="0px" y="0px"
	 viewBox="0 0 2000 2000" style="enable-background:new 0 0 2000 2000;" xml:space="preserve">
<style type="text/css">
	.st0{fill-rule:evenodd;clip-rule:evenodd;fill:#8E8E8E;stroke:#000000;stroke-miterlimit:10;}
	.st1{fill-rule:evenodd;clip-rule:evenodd;fill:#CD00D3;stroke:#000000;stroke-miterlimit:10;}
	.st2{fill-rule:evenodd;clip-rule:evenodd;fill:#484848;stroke:#000000;stroke-miterlimit:10;}
	.st3{fill-rule:evenodd;clip-rule:evenodd;fill:#494A49;stroke:#000000;stroke-miterlimit:10;}
	.st4{fill-rule:evenodd;clip-rule:evenodd;fill:#6A6B6B;stroke:#000000;stroke-miterlimit:10;}
	.st5{fill-rule:evenodd;clip-rule:evenodd;fill:#8E8F8F;stroke:#000000;stroke-miterlimit:10;}
	.st6{fill-rule:evenodd;clip-rule:evenodd;fill:#B4B4B4;stroke:#000000;stroke-miterlimit:10;}
</style>
<g>
	<g>
		<path class="st0" d="M383,353.9c8.6-17.3,22.2-29,40.4-35c9.5-3.1,19.4-4.7,29.5-4.7c7.2,0,14.4,0,21.5,0c0,0,0,0,0.1,0
			c14.2-0.1,28.3,0,42.5-0.1V200.8c-15.7-0.1-31.5-0.1-47.2-0.1c-15.4,0-30.7,0-46.1,0.2c-17.9,0.3-35.9,1.1-53.6,5.1
			c-35.3,8.1-65,25.1-87,54.4c-26.7,35.6-39.2,76.8-46,120c-5.1,32.6-6.1,65.6-6,98.6c0.2,95.3,0,190.6,0.1,285.9
			c0,24-0.7,47.9-4.3,71.7c-3.2,21.1-8.1,41.8-17.8,61c-14.2,28.1-41.4,43-76.2,40.1c0,41.3,0,82.6,0,124c5.3-0.9,10.7-0.5,15.9,0.1
			c24,2.9,43.8,12.9,56.7,34.4c7.1,11.8,11.9,24.5,15.4,37.8c8,30.8,10.2,62.3,10.2,94c0,98.3,0,196.6,0,294.9
			c0,26,0.7,51.9,3.6,77.8c3.9,35.3,11.6,69.6,26.4,102c17.1,37.4,42.7,66.5,81.4,82.6c22.5,9.3,46.1,13.1,70.2,13.6
			c18.7,0.4,37.5,0.4,56.2,0.4c0,0,0,0,0,0c16,0,32-0.1,48-0.1v-113.4c-7.2,0-14.4,0.1-21.6,0.1v-0.1c-3.5,0-7,0-10.5,0.1
			c-4.4,0-8.9-0.1-13.3-0.3c0,0-0.1,0.1-0.1,0.3c-7.2,0-14.3-0.1-21.5-0.3c-34.2-1.1-59-16.5-71.4-49.4c-2.1-5.6-4.1-11.2-5.9-17
			c-8.6-27.3-10.9-55.5-11.3-83.8c-0.6-42.3-0.2-84.6-0.2-126.9c-0.1-72.3,0.2-144.6-0.4-216.9c-0.3-38.3-8-75.5-24-110.4
			c-17.4-37.9-43.2-67-85.1-78.6c-1.7-0.5-4.3-0.4-3.7-3.9c2-0.7,4.1-1.6,6.3-2.2c14.5-3.6,27.2-10.7,38.9-19.8
			c24.1-18.9,39.1-44.2,49.7-72.4c13.3-35.3,18.4-72.1,18.3-109.7c-0.1-101.3,0.1-202.6,0-303.9c0-24.7,0.5-49.3,3.8-73.8
			C367.9,395,373.2,373.8,383,353.9z"/>
		<path class="st0" d="M1618,353.9c-8.6-17.3-22.2-29-40.4-35c-9.5-3.1-19.4-4.7-29.5-4.7c-7.2,0-14.4,0-21.5,0c0,0,0,0-0.1,0
			c-14.2-0.1-28.3,0-42.5-0.1V200.8c15.7-0.1,31.5-0.1,47.2-0.1c15.4,0,30.7,0,46.1,0.2c17.9,0.3,35.9,1.1,53.6,5.1
			c35.3,8.1,65,25.1,87,54.4c26.7,35.6,39.2,76.8,46,120c5.1,32.6,6.1,65.6,6,98.6c-0.2,95.3,0,190.6-0.1,285.9
			c0,24,0.7,47.9,4.3,71.7c3.2,21.1,8.1,41.8,17.8,61c14.2,28.1,41.4,43,76.2,40.1c0,41.3,0,82.6,0,124c-5.3-0.9-10.7-0.5-15.9,0.1
			c-24,2.9-43.8,12.9-56.7,34.4c-7.1,11.8-11.9,24.5-15.4,37.8c-8,30.8-10.2,62.3-10.2,94c0,98.3,0,196.6,0,294.9
			c0,26-0.7,51.9-3.6,77.8c-3.9,35.3-11.6,69.6-26.4,102c-17.1,37.4-42.7,66.5-81.4,82.6c-22.5,9.3-46.1,13.1-70.2,13.6
			c-18.7,0.4-37.5,0.4-56.2,0.4c0,0,0,0,0,0c-16,0-32-0.1-48-0.1v-113.4c7.2,0,14.4,0.1,21.6,0.1v-0.1c3.5,0,7,0,10.5,0.1
			c4.4,0,8.9-0.1,13.3-0.3c0,0,0.1,0.1,0.1,0.3c7.2,0,14.3-0.1,21.5-0.3c34.2-1.1,59-16.5,71.4-49.4c2.1-5.6,4.1-11.2,5.9-17
			c8.6-27.3,10.9-55.5,11.3-83.8c0.6-42.3,0.2-84.6,0.2-126.9c0.1-72.3-0.2-144.6,0.4-216.9c0.3-38.3,8-75.5,24-110.4
			c17.4-37.9,43.2-67,85.1-78.6c1.7-0.5,4.3-0.4,3.7-3.9c-2-0.7-4.1-1.6-6.3-2.2c-14.5-3.6-27.2-10.7-38.9-19.8
			c-24.1-18.9-39.1-44.2-49.7-72.4c-13.3-35.3-18.4-72.1-18.3-109.7c0.1-101.3-0.1-202.6,0-303.9c0-24.7-0.5-49.3-3.8-73.8
			C1633.1,395,1627.8,373.8,1618,353.9z"/>
		<rect x="550.8" y="1687.2" class="st0" width="898.5" height="99.1"/>
		<rect x="624.5" y="1436.4" class="st1" width="756.5" height="94.3"/>
		<rect x="628.9" y="439" class="st2" width="756.5" height="94.3"/>
		<rect x="628.9" y="638.5" class="st3" width="756.5" height="94.3"/>
		<rect x="628.9" y="837.9" class="st4" width="756.5" height="94.3"/>
		<rect x="628.9" y="1037.4" class="st5" width="756.5" height="94.3"/>
		<rect x="628.9" y="1236.9" class="st6" width="756.5" height="94.3"/>
	</g>
</g>
</svg>
